# xmcd
#
# Track frame offsets: 
#        150
#        30795
#        59950
#        83362
#        113030
#
# Disc length: 1799 seconds
#
# Revision: 1
# Processed by: cddbd v1.5.1PL0 Copyright (c) Steve Scherf et al.
# Submitted via: ExactAudioCopy v0.95a5
#
DISCID=31070505
DTITLE=Johnny Griffin - The Congregation
DYEAR=1957
DGENRE=Jazz
TTITLE0=The Congregation
TTITLE1=Latin Quarter
TTITLE2=I'm Glad There Is You
TTITLE3=Main Spring
TTITLE4=It's You Or No One
EXTD=YEAR: 1957
EXTT0=
EXTT1=
EXTT2=
EXTT3=
EXTT4=
PLAYORDER=
